<svg version="1.1" xmlns="http://www.w3.org/2000/svg" xmlns:xlink="http://www.w3.org/1999/xlink" width="40.15176" height="37.17111" viewBox="0,0,40.15176,37.17111"><defs><radialGradient cx="239.9463" cy="179.25001" r="20.14565" gradientUnits="userSpaceOnUse" id="color-1"><stop offset="0" stop-color="#ffe566"/><stop offset="1" stop-color="#ff8966"/></radialGradient></defs><g transform="translate(-219.92412,-161.41445)"><g data-paper-data="{&quot;isPaintingLayer&quot;:true}" fill="url(#color-1)" fill-rule="nonzero" stroke="none" stroke-width="NaN" stroke-linecap="butt" stroke-linejoin="miter" stroke-miterlimit="10" stroke-dasharray="" stroke-dashoffset="0" style="mix-blend-mode: normal"><path d="M225.14362,190.58156c0,0 -5.19742,-8.19476 -5.21941,-13.23045c-0.02317,-5.30566 4.26978,-15.66534 4.26978,-15.66534c0,0 1.72877,3.29164 2.73696,6.56489c2.32277,7.54123 3.05991,-3.50894 4.62257,-4.38459c1.91907,-1.07537 3.65791,6.93898 4.95582,6.31456c2.22529,-1.07059 3.14619,-9.35529 3.63018,-7.6739c3.64627,12.6674 3.61736,-0.34778 4.37315,0.76655c1.92489,2.83804 4.47391,6.34612 5.7393,6.33566c2.94291,-0.02432 6.77198,-8.1945 6.77198,-8.1945c0,0 3.07451,10.23907 3.05181,15.52897c-0.02252,5.24608 -2.50916,12.14588 -2.50916,12.14588c0,0 -10.33435,9.49626 -16.94199,9.49626c-6.8163,0 -15.48098,-8.004 -15.48098,-8.004z" stroke-width="NaN"/></g></g></svg>