<svg version="1.1" xmlns="http://www.w3.org/2000/svg" xmlns:xlink="http://www.w3.org/1999/xlink" width="41.40932" height="39.6503" viewBox="0,0,41.40932,39.6503"><defs><radialGradient cx="240.11549" cy="176.28447" r="20.69183" gradientUnits="userSpaceOnUse" id="color-1"><stop offset="0" stop-color="#ffca00"/><stop offset="1" stop-color="#ff4f00"/></radialGradient></defs><g transform="translate(-219.29534,-160.17485)"><g data-paper-data="{&quot;isPaintingLayer&quot;:true}" fill="url(#color-1)" fill-rule="nonzero" stroke="none" stroke-width="0" stroke-linecap="butt" stroke-linejoin="miter" stroke-miterlimit="10" stroke-dasharray="" stroke-dashoffset="0" style="mix-blend-mode: normal"><path d="M260.679,180.72148c0,5.20376 0.57969,18.60505 -3.7717,15.52782c-2.06443,-1.45993 -5.60824,-0.94949 -8.10796,0.82146c-1.86477,1.32112 -2.69215,-3.49602 -2.81709,-3.44486c-2.42954,0.9948 -3.63955,7.497 -7.44714,3.14082c-2.21853,-2.53817 -6.69908,4.28171 -9.51133,2.86171c-3.75655,-1.89681 -5.48171,-8.5654 -7.62214,-3.97976c-1.38229,2.96141 -2.1063,-11.39847 -2.1063,-14.9272c0,-11.34759 9.26405,-20.54663 20.69183,-20.54663c11.42778,0 20.69183,9.19904 20.69183,20.54663z"/></g></g></svg>