<svg version="1.1" xmlns="http://www.w3.org/2000/svg" xmlns:xlink="http://www.w3.org/1999/xlink" width="41.38366" height="41.09326" viewBox="0,0,41.38366,41.09326"><g transform="translate(-219.30817,-159.45337)"><g data-paper-data="{&quot;isPaintingLayer&quot;:true}" fill-rule="nonzero" stroke="none" stroke-width="0" stroke-linecap="butt" stroke-linejoin="miter" stroke-miterlimit="10" stroke-dasharray="" stroke-dashoffset="0" style="mix-blend-mode: normal"><path d="M260.69183,180c0,11.34759 -9.26405,20.54663 -20.69183,20.54663c-11.42778,0 -20.69183,-9.19904 -20.69183,-20.54663c0,-11.34759 9.26405,-20.54663 20.69183,-20.54663c11.42778,0 20.69183,9.19904 20.69183,20.54663z" fill="#885936"/><path d="M243.03243,175.27258c0,4.89189 -4.32322,8.85756 -9.65619,8.85756c-5.33297,0 -9.65619,-3.96566 -9.65619,-8.85756c0,-4.89189 4.32322,-8.85756 9.65619,-8.85756c5.33297,0 9.65619,3.96566 9.65619,8.85756z" fill="#af7346"/><path d="M256.9722,184.85617c0,5.61365 -4.84331,10.16441 -10.81784,10.16441c-5.97453,0 -10.81784,-4.55076 -10.81784,-10.16441c0,-5.61365 4.84331,-10.16441 10.81784,-10.16441c5.97453,0 10.81784,4.55076 10.81784,10.16441z" fill="#af7346"/><path d="M251.30917,164.09173c0,1.68409 -2.86048,3.04932 -6.38906,3.04932c-3.52858,0 -6.38906,-1.36523 -6.38906,-3.04932c0,-1.68409 2.86048,-3.04932 6.38906,-3.04932c3.52858,0 6.38906,1.36523 6.38906,3.04932z" fill="#af7346"/><path d="M235.91735,193.49591c0,1.16283 -2.04784,2.10548 -4.57398,2.10548c-2.52614,0 -4.57398,-0.94266 -4.57398,-2.10548c0,-1.16283 2.04784,-2.10548 4.57398,-2.10548c2.52614,0 4.57398,0.94266 4.57398,2.10548z" fill="#af7346"/></g></g></svg>