<svg version="1.1" xmlns="http://www.w3.org/2000/svg" xmlns:xlink="http://www.w3.org/1999/xlink" width="40.22203" height="37.52748" viewBox="0,0,40.22203,37.52748"><g transform="translate(-219.94469,-161.55885)"><g data-paper-data="{&quot;isPaintingLayer&quot;:true}" fill-rule="nonzero" stroke="none" stroke-width="0" stroke-linecap="butt" stroke-linejoin="miter" stroke-miterlimit="10" stroke-dasharray="" stroke-dashoffset="0" style="mix-blend-mode: normal"><path d="M259.45758,180c0,10.18476 -8.71146,18.44115 -19.45758,18.44115c-10.74612,0 -19.45758,-8.25638 -19.45758,-18.44115c0,-10.18476 8.71146,-18.44115 19.45758,-18.44115c10.74612,0 19.45758,8.25638 19.45758,18.44115z" fill="#878787"/><path d="M239.25707,171.35202c0,4.89189 -4.32322,8.85756 -9.65619,8.85756c-5.33297,0 -9.65619,-3.96566 -9.65619,-8.85756c0,-4.89189 4.32322,-8.85756 9.65619,-8.85756c5.33297,0 9.65619,3.96566 9.65619,8.85756z" fill="#b0b0b0"/><path d="M260.16672,188.48632c0,5.61365 -4.84331,10.16441 -10.81784,10.16441c-5.97453,0 -10.81784,-4.55076 -10.81784,-10.16441c0,-5.61365 4.84331,-10.16441 10.81784,-10.16441c5.97453,0 10.81784,4.55076 10.81784,10.16441z" fill="#b0b0b0"/><path d="M256.53658,167.86708c0,3.0474 -2.86048,5.51782 -6.38906,5.51782c-3.52858,0 -6.38906,-2.47042 -6.38906,-5.51782c0,-3.0474 2.86048,-5.51782 6.38906,-5.51782c3.52858,0 6.38906,2.47042 6.38906,5.51782z" fill="#b0b0b0"/><path d="M235.91735,195.23838c0,2.12517 -2.04784,3.84795 -4.57398,3.84795c-2.52614,0 -4.57398,-1.72279 -4.57398,-3.84795c0,-2.12517 2.04784,-3.84795 4.57398,-3.84795c2.52614,0 4.57398,1.72279 4.57398,3.84795z" fill="#b0b0b0"/></g></g></svg>