<svg version="1.1" xmlns="http://www.w3.org/2000/svg" xmlns:xlink="http://www.w3.org/1999/xlink" width="38.91516" height="36.8823" viewBox="0,0,38.91516,36.8823"><defs><radialGradient cx="246.8078" cy="170.4808" r="19.45758" gradientUnits="userSpaceOnUse" id="color-1"><stop offset="0" stop-color="#b0b0b0"/><stop offset="1" stop-color="#626262"/></radialGradient></defs><g transform="translate(-220.54242,-161.55885)"><g data-paper-data="{&quot;isPaintingLayer&quot;:true}" fill-rule="nonzero" stroke="none" stroke-linecap="butt" stroke-linejoin="miter" stroke-miterlimit="10" stroke-dasharray="" stroke-dashoffset="0" style="mix-blend-mode: normal"><path d="M259.45759,180.00001c0,10.18476 -8.71146,18.44115 -19.45758,18.44115c-10.74612,0 -19.45758,-8.25638 -19.45758,-18.44115c0,-10.18476 8.71146,-18.44115 19.45758,-18.44115c10.74612,0 19.45758,8.25638 19.45758,18.44115z" fill="url(#color-1)" stroke-width="0"/><path d="M228.78961,172.93664c0.88388,-0.88388 1.76777,0 1.76777,0l-0.07618,-0.03091c0.87517,0.5503 2.81107,1.59749 2.90759,2.71296c0.13645,1.5769 -2.08339,2.79115 -3.56893,3.28332c0.69163,0.45208 1.69591,0.93554 1.68447,1.74319c-0.01208,0.85233 -1.14027,1.27673 -1.8002,1.81627c-0.43206,0.35325 -1.72561,0.10158 -1.55059,0.63152c0.25778,0.78055 1.83301,0.41095 2.17766,1.15722c1.07333,2.32407 -1.21929,3.789 -2.17402,5.5607c0,0 -0.59857,1.09737 -1.69593,0.4988c-1.09737,-0.59857 -0.4988,-1.69593 -0.4988,-1.69593c0.31614,-0.57367 0.56312,-1.1913 0.94842,-1.721c0.37042,-0.50924 1.72788,-1.04032 1.23374,-1.43065c-0.92609,-0.73153 -2.33978,0.2992 -2.46893,-2.03731c-0.05233,-0.94671 0.83159,-1.73202 1.46289,-2.43945c0.12245,-0.13721 0.33544,-0.27673 0.5748,-0.39008c-0.55167,-0.33856 -1.06316,-0.86584 -1.0273,-1.29029c0.09322,-1.10342 1.29422,-1.81525 2.10285,-2.57178c0.47229,-0.44187 1.09018,-0.70602 1.68127,-0.96855c0.12987,-0.05768 0.56134,0.07325 0.42504,0.03304c-0.6083,-0.17946 -1.20013,-0.43755 -1.739,-0.77198l-0.36659,-0.32132c0,0 -0.88388,-0.88388 0,-1.76777z" fill="#ffb90d" stroke-width="0.5"/><path d="M248.66684,169.17499c1.1606,-0.46424 1.62483,0.69636 1.62483,0.69636l-0.4749,0.00441c2.14546,0.72027 3.9639,1.11462 3.26958,4.01658c-0.08163,0.34117 -0.7642,0.26106 -0.86707,0.59643c-0.07304,0.23811 0.51678,-0.28023 0.73123,-0.15358c0.81924,0.48384 1.76924,0.99649 2.16273,1.86276c0.51006,1.1229 -0.48344,2.41929 -0.68341,3.63629c0,0 -0.2055,1.23299 -1.43849,1.02749c-1.23299,-0.2055 -1.02749,-1.43849 -1.02749,-1.43849c0.10342,-0.61276 0.12509,-1.24509 0.31026,-1.83829c0.07691,-0.24638 0.57902,-0.39588 0.45839,-0.62407c-0.53168,-1.00566 -2.5852,-0.68683 -2.91427,-1.77575c-0.25547,-0.84536 1.58431,-1.78039 1.00845,-2.44994c-0.40546,-0.47141 -1.21011,-0.29256 -1.80047,-0.48775l-1.05572,-1.44765c0,0 -0.46424,-1.1606 0.69636,-1.62483z" fill="#ffb90d" stroke-width="0.5"/><path d="M244.57601,187.50027c0.84084,-0.92493 1.76577,-0.08408 1.76577,-0.08408l1.9947,2.5478c-0.44554,0.35572 -0.90225,0.69788 -1.33661,1.06717c-0.29994,0.25501 0.85276,0.21078 1.04203,0.556c0.4488,0.8186 1.11991,1.84233 0.74846,2.69881c-0.17436,0.40202 -4.35658,1.54837 -4.67918,1.64341c0,0 -1.19921,0.35271 -1.55191,-0.8465c-0.35271,-1.19921 0.8465,-1.55191 0.8465,-1.55191c0.03073,-0.00902 1.07124,-0.5605 1.98088,-0.6935c-0.26037,-0.17231 -0.47714,-0.36917 -0.54339,-0.55065c-0.32599,-0.89297 0.07039,-2.57385 1.01668,-2.66446l-1.19983,-0.35631c0,0 -0.92493,-0.84084 -0.08408,-1.76577z" fill="#ffb90d" stroke-width="0.5"/><path d="M239.52569,162.68328c1.11803,0.55902 0.55902,1.67705 0.55902,1.67705l-0.46772,0.84494c-1.72824,1.06574 2.4472,0.95261 2.63091,2.88782c0.16814,1.77117 -4.07455,3.13671 -5.15579,3.55437c0,0 -1.16668,0.44872 -1.61541,-0.71796c-0.44872,-1.16668 0.71796,-1.61541 0.71796,-1.61541c0.60241,-0.2306 1.21905,-0.42698 1.80722,-0.69181c0.14875,-0.06698 0.36722,-0.16656 0.60064,-0.26526c-0.41345,-0.16865 -0.82744,-0.45969 -1.05761,-0.72677c-0.53569,-0.6216 -1.16946,-1.36683 -1.13108,-2.18652c0.03589,-0.76649 0.88114,-1.25649 1.32171,-1.88474l0.1131,-0.31671c0,0 0.55902,-1.11803 1.67705,-0.55902z" fill="#ffb90d" stroke-width="0.5"/><path d="M228.53606,169.50468c0.39528,1.18585 -0.79057,1.58114 -0.79057,1.58114l-0.18778,0.03122c-2.61135,1.5667 -3.02612,1.7924 -3.02327,4.88157c0,0 0,1.25 -1.25,1.25c-1.25,0 -1.25,-1.25 -1.25,-1.25c0.00333,-3.87608 0.99616,-5.08065 4.23703,-7.02531l0.68345,-0.25919c0,0 1.18585,-0.39528 1.58114,0.79057z" fill="#ffb90d" stroke-width="0.5"/><path d="M253.96814,190.29286c-1.22573,-0.24515 -0.98058,-1.47087 -0.98058,-1.47087l0.27222,-1.33009c-0.00203,-0.44296 -0.00406,-0.88592 -0.00608,-1.32889c0,0 0,-1.25 1.25,-1.25c1.25,0 1.25,1.25 1.25,1.25c-0.00203,0.52508 -0.00406,1.05015 -0.00608,1.57523l-0.3086,1.57403c0,0 -0.24515,1.22573 -1.47087,0.98058z" fill="#ffb90d" stroke-width="0.5"/><path d="M241.14476,181.45958c-1.25,0 -1.25,-1.25 -1.25,-1.25c0,-1.06484 0,-2.27489 0,-3.33973c0,0 0,-1.25 1.25,-1.25c1.25,0 1.25,1.25 1.25,1.25c0,1.06484 0,2.12969 0,3.19453v0.14521c0,0 0,1.25 -1.25,1.25z" fill="#ffb90d" stroke-width="0.5"/></g></g></svg>