<svg version="1.1" xmlns="http://www.w3.org/2000/svg" xmlns:xlink="http://www.w3.org/1999/xlink" width="38.91516" height="36.8823" viewBox="0,0,38.91516,36.8823"><g transform="translate(-220.54242,-161.55885)"><g data-paper-data="{&quot;isPaintingLayer&quot;:true}" fill-rule="nonzero" stroke-linejoin="miter" stroke-miterlimit="10" stroke-dasharray="" stroke-dashoffset="0" style="mix-blend-mode: normal"><path d="M259.45758,180c0,10.18476 -8.71146,18.44115 -19.45758,18.44115c-10.74612,0 -19.45758,-8.25638 -19.45758,-18.44115c0,-10.18476 8.71146,-18.44115 19.45758,-18.44115c10.74612,0 19.45758,8.25638 19.45758,18.44115z" fill="#ffd18d" stroke="none" stroke-width="0" stroke-linecap="butt"/><path d="M228.36664,165.54379c0,0 -2.15183,5.70012 -2.13418,9.30063c0.01185,2.41668 4.23362,6.83753 4.72825,10.82732c0.62478,5.03963 -2.44886,9.49405 -2.44886,9.49405" fill="none" stroke="#c9a56f" stroke-width="0.5" stroke-linecap="round"/><path d="M236.27076,162.26706c0,0 -2.15184,6.87367 -2.13419,11.21546c0.01184,2.91423 4.23361,8.24526 4.72824,13.05647c0.62479,6.0772 -2.44885,11.4487 -2.44885,11.4487" fill="none" stroke="#c9a56f" stroke-width="0.5" stroke-linecap="round"/><path d="M244.7557,162.62047c0,0 -2.15184,6.73396 -2.13419,10.98751c0.01184,2.855 4.23361,8.07767 4.72824,12.7911c0.62479,5.95368 -2.44885,11.21601 -2.44885,11.21601" fill="none" stroke="#c9a56f" stroke-width="0.5" stroke-linecap="round"/><path d="M251.78858,165.73279c0,0 -2.15184,5.47658 -2.13419,8.9359c0.01184,2.3219 4.23361,6.56939 4.72824,10.40272c0.62478,4.842 -2.44885,9.12173 -2.44885,9.12173" fill="none" stroke="#c9a56f" stroke-width="0.5" stroke-linecap="round"/></g></g></svg>