<svg version="1.1" xmlns="http://www.w3.org/2000/svg" xmlns:xlink="http://www.w3.org/1999/xlink" width="40.22203" height="36.73707" viewBox="0,0,40.22203,36.73707"><defs><radialGradient cx="230.11159" cy="166.40182" r="9.65619" gradientUnits="userSpaceOnUse" id="color-1"><stop offset="0" stop-color="#d8d8d8" stop-opacity="0"/><stop offset="1" stop-color="#d8d8d8"/></radialGradient><radialGradient cx="252.21512" cy="181.52529" r="10.81784" gradientUnits="userSpaceOnUse" id="color-2"><stop offset="0" stop-color="#d8d8d8" stop-opacity="0"/><stop offset="1" stop-color="#d8d8d8"/></radialGradient><radialGradient cx="251.82734" cy="164.72144" r="6.38906" gradientUnits="userSpaceOnUse" id="color-3"><stop offset="0" stop-color="#d8d8d8" stop-opacity="0"/><stop offset="1" stop-color="#d8d8d8"/></radialGradient><radialGradient cx="232.82606" cy="193.28798" r="4.57398" gradientUnits="userSpaceOnUse" id="color-4"><stop offset="0" stop-color="#d8d8d8" stop-opacity="0"/><stop offset="1" stop-color="#d8d8d8"/></radialGradient></defs><g transform="translate(-219.94469,-162.34926)"><g data-paper-data="{&quot;isPaintingLayer&quot;:true}" fill-rule="nonzero" stroke="none" stroke-width="0" stroke-linecap="butt" stroke-linejoin="miter" stroke-miterlimit="10" stroke-dasharray="" stroke-dashoffset="0" style="mix-blend-mode: normal"><path d="M239.25707,171.35202c0,4.89189 -4.32322,8.85756 -9.65619,8.85756c-5.33297,0 -9.65619,-3.96566 -9.65619,-8.85756c0,-4.89189 4.32322,-8.85756 9.65619,-8.85756c5.33297,0 9.65619,3.96566 9.65619,8.85756z" fill="url(#color-1)"/><path d="M260.16672,188.48632c0,5.61365 -4.84331,10.16441 -10.81784,10.16441c-5.97453,0 -10.81784,-4.55076 -10.81784,-10.16441c0,-5.61365 4.84331,-10.16441 10.81784,-10.16441c5.97453,0 10.81784,4.55076 10.81784,10.16441z" fill="url(#color-2)"/><path d="M256.53658,167.86708c0,3.0474 -2.86048,5.51782 -6.38906,5.51782c-3.52858,0 -6.38906,-2.47042 -6.38906,-5.51782c0,-3.0474 2.86048,-5.51782 6.38906,-5.51782c3.52858,0 6.38906,2.47042 6.38906,5.51782z" fill="url(#color-3)"/><path d="M235.91735,195.23838c0,2.12517 -2.04784,3.84795 -4.57398,3.84795c-2.52614,0 -4.57398,-1.72279 -4.57398,-3.84795c0,-2.12517 2.04784,-3.84795 4.57398,-3.84795c2.52614,0 4.57398,1.72279 4.57398,3.84795z" fill="url(#color-4)"/></g></g></svg>